<?xml version="1.0" standalone="no"?>
<!DOCTYPE svg PUBLIC "-//W3C//DTD SVG 20010904//EN"
 "http://www.w3.org/TR/2001/REC-SVG-20010904/DTD/svg10.dtd">
<svg version="1.0" xmlns="http://www.w3.org/2000/svg"
 width="288.000000pt" height="254.000000pt" viewBox="0 0 288.000000 254.000000"
 preserveAspectRatio="xMidYMid meet">

<g transform="translate(0.000000,254.000000) scale(0.100000,-0.100000)"
fill="#000000" stroke="none">
<path d="M1245 2534 c-368 -54 -654 -191 -885 -423 -244 -245 -360 -515 -360
-836 0 -318 117 -591 355 -831 228 -229 507 -367 850 -420 84 -13 325 -20 325
-9 0 2 -214 312 -475 687 l-475 683 108 6 c183 10 262 63 283 188 12 79 -1
127 -53 185 -61 71 -94 79 -310 84 l-188 4 0 -511 0 -511 -65 0 -65 0 0 571 0
571 263 -5 c280 -4 314 -9 393 -60 199 -126 230 -365 70 -535 -37 -40 -88 -68
-155 -85 l-49 -13 439 -614 c241 -338 445 -619 452 -624 19 -12 203 34 320 80
199 78 354 180 502 328 238 240 355 513 355 831 0 321 -116 591 -360 836 -201
202 -446 333 -750 400 -75 16 -138 21 -295 24 -110 2 -213 1 -230 -1z m494
-1046 c119 -263 218 -478 221 -478 3 0 102 215 220 478 l215 477 96 3 96 3 6
-248 c4 -136 7 -458 7 -715 l0 -466 -57 -36 -58 -35 -6 182 c-4 100 -8 321 -9
492 -1 171 -5 389 -9 485 l-6 174 -220 -484 -221 -485 -59 0 -59 0 -221 490
-220 489 -3 -492 -2 -492 -65 0 -65 0 0 570 0 571 102 -3 102 -3 215 -477z"/>
</g>
</svg>
